<svg width="256" height="256" viewBox="0 0 256 256" fill="none" xmlns="http://www.w3.org/2000/svg">
<path d="M137.937 4.83594L138.051 5.16602L143.101 19.7598C146.052 20.1705 148.966 20.7006 151.837 21.3428L161.726 9.29883L161.946 9.0293L174.408 13.3799L174.413 13.7295L174.653 29.2041C177.177 30.4031 179.649 31.6953 182.062 33.0781L195.025 24.5742L195.317 24.3828L205.914 32.252L205.815 32.5869L201.479 47.2588C203.808 49.3887 206.044 51.6187 208.181 53.9414L223.281 49.6641L223.618 49.5684L231.367 60.2529L231.173 60.543L222.495 73.4502C223.715 75.5719 224.864 77.7397 225.942 79.9482L241.423 80.2061L241.772 80.2119L246.109 92.6777L245.839 92.8994L234.025 102.573C234.663 105.275 235.201 108.016 235.634 110.792L250.197 115.713L250.528 115.824L250.866 129.019L250.542 129.147L236.726 134.618C236.539 137.604 236.23 140.557 235.808 143.474L248.372 152.607L248.654 152.812L245.042 165.508L244.693 165.534L229.782 166.643C228.634 169.644 227.356 172.581 225.957 175.448L234.741 187.218L234.95 187.498L227.737 198.552L227.396 198.473L213.489 195.264C211.089 198.299 208.531 201.204 205.827 203.966L210.859 218.615L210.973 218.945L200.729 227.269L200.428 227.09L187.198 219.212C184.031 221.268 180.75 223.164 177.367 224.888L177.46 240.435L177.462 240.784L165.097 245.401L164.87 245.136L154.789 233.38C151.118 234.31 147.374 235.054 143.565 235.601L138.774 249.922L138.664 250.254L125.471 250.631L125.341 250.307L119.79 236.412C115.655 236.106 111.584 235.57 107.59 234.815L98.5547 246.688L98.3428 246.967L85.7295 243.077L85.7119 242.728L84.9346 227.899C80.6549 226.06 76.516 223.956 72.54 221.604L59.5713 229.954L59.2773 230.144L48.749 222.184L48.8506 221.85L53.3252 207.168C50.7284 204.728 48.2512 202.163 45.9033 199.481L31.8555 203.555L31.5195 203.652L23.7051 193.015L23.8984 192.724L32.3066 180.05C30.2982 176.388 28.4928 172.598 26.9082 168.695L11.9756 167.707L11.627 167.684L7.91113 155.019L8.19238 154.811L20.4287 145.762C19.8014 141.997 19.3676 138.167 19.1367 134.282L5.12793 128.175L4.80762 128.036L5.59473 114.86L5.92969 114.76L20.3037 110.442C20.8516 107.001 21.5589 103.613 22.4209 100.287L10.6084 89.8594L10.3467 89.6279L15.1406 77.3301L15.4902 77.3379L31.0928 77.6543C32.5074 74.923 34.0341 72.2592 35.667 69.6689L27.9102 57.1436L27.7256 56.8467L35.8682 46.459L36.2012 46.5664L50.3574 51.1533C52.6816 48.7983 55.1114 46.5478 57.6406 44.4111L54.0215 29.7188L53.9375 29.3799L64.8828 22.0029L65.166 22.208L77.4453 31.0928C80.1136 29.6954 82.846 28.4036 85.6387 27.2266L86.7256 11.6816L86.75 11.333L99.4297 7.66504L99.6357 7.94629L108.771 20.3945C112.172 19.791 115.628 19.3456 119.131 19.0654L124.613 4.91992L124.739 4.59375L137.937 4.83594ZM127.941 35.7139C77.1313 35.714 35.9414 76.9038 35.9414 127.714C35.9416 178.524 77.1314 219.714 127.941 219.714C178.751 219.714 219.941 178.524 219.941 127.714C219.941 76.9037 178.752 35.7139 127.941 35.7139Z" fill="black"/>
<path d="M65.1012 111.438L65.695 115.031C65.695 114.948 66.195 114.531 67.195 113.781C68.195 113.031 69.3825 112.354 70.7575 111.75C72.1533 111.125 73.6221 110.812 75.1637 110.812C79.5179 110.812 82.82 112.312 85.07 115.312C87.3408 118.312 88.4762 122.458 88.4762 127.75C88.4762 133.771 87.0387 138.427 84.1637 141.719C81.3096 144.99 77.1325 146.625 71.6325 146.625C69.8408 146.625 68.0283 146.417 66.195 146V154.125L72.2887 155.594V160.719H51.6012V155.594L56.6012 154.125V118.469L51.4762 116.875V111.75L65.1012 111.438ZM66.195 138.312C67.6533 138.958 69.32 139.281 71.195 139.281C73.8408 139.281 75.7262 138.406 76.8512 136.656C77.9762 134.906 78.5387 132.323 78.5387 128.906C78.5387 125.531 78.0387 122.948 77.0387 121.156C76.0387 119.365 74.4033 118.469 72.1325 118.469C70.9033 118.469 69.8512 118.729 68.9762 119.25C68.1012 119.771 67.4137 120.344 66.9137 120.969C66.4346 121.573 66.195 121.917 66.195 122V138.312ZM98.3775 140.562L103.159 138.625V108.562L98.3775 106.625V101.188L113.096 100.875H117.94C123.273 100.875 127.377 101.979 130.252 104.188C133.148 106.375 134.596 109.625 134.596 113.938C134.596 116.833 133.95 119.292 132.659 121.312C131.388 123.312 129.617 124.885 127.346 126.031C128.409 127.26 129.305 128.646 130.034 130.188L134.346 138.969L138.69 140.562V146H126.846L121.471 134.156C120.659 132.323 120.013 131.031 119.534 130.281C119.075 129.531 118.544 129.01 117.94 128.719C117.357 128.427 116.482 128.281 115.315 128.281H113.096V138.625L117.69 140.562V146H98.3775V140.562ZM116.721 121.562C119.242 121.562 121.2 120.979 122.596 119.812C124.013 118.625 124.721 116.969 124.721 114.844C124.721 113.01 124.148 111.51 123.002 110.344C121.857 109.156 120.305 108.562 118.346 108.562H113.096V121.562H116.721ZM150.654 100.875C150.654 99.125 151.195 97.7292 152.279 96.6875C153.362 95.6458 154.654 95.125 156.154 95.125C159.737 95.125 161.529 97.0417 161.529 100.875C161.529 102.667 160.977 104.094 159.872 105.156C158.789 106.198 157.55 106.719 156.154 106.719C154.404 106.719 153.05 106.219 152.091 105.219C151.133 104.198 150.654 102.75 150.654 100.875ZM165.872 140.875V146H146.685V140.875L151.81 139.281V118.469L146.685 116.875V111.75L161.404 111.438V139.281L165.872 140.875ZM192.461 110.812C197.607 110.812 201.576 112.312 204.368 115.312C207.18 118.312 208.586 122.573 208.586 128.094C208.586 131.885 207.878 135.177 206.461 137.969C205.065 140.76 203.086 142.906 200.524 144.406C197.961 145.885 194.951 146.625 191.493 146.625C180.618 146.625 175.18 140.76 175.18 129.031C175.18 125.24 175.888 121.979 177.305 119.25C178.743 116.521 180.763 114.438 183.368 113C185.972 111.542 189.003 110.812 192.461 110.812ZM192.118 118.469C189.701 118.469 187.92 119.25 186.774 120.812C185.649 122.375 185.086 125.01 185.086 128.719C185.086 132.26 185.618 134.854 186.68 136.5C187.763 138.146 189.472 138.969 191.805 138.969C194.159 138.969 195.888 138.146 196.993 136.5C198.097 134.854 198.649 132.156 198.649 128.406C198.649 125.073 198.128 122.583 197.086 120.938C196.045 119.292 194.388 118.469 192.118 118.469Z" fill="black"/>
</svg>
